<svg width="18" height="18" viewBox="0 0 18 18" fill="none" xmlns="http://www.w3.org/2000/svg">
<path d="M1.35553 9.44706L1.01421 9.02982L1.33038 8.59324C1.35424 8.56175 2.13103 7.48893 3.47557 6.39848C4.81755 5.31364 6.74999 4.18535 9.09069 4.18089C9.8283 4.18022 10.603 4.3134 11.3932 4.5753L5.7846 10.184C5.65966 9.81309 5.58458 9.41709 5.58458 9.00004C5.58458 7.60154 6.35247 6.40348 7.46013 5.81754C6.31488 6.13804 5.29119 6.74662 4.47064 7.3953C3.72357 7.98392 3.15227 8.59043 2.81365 8.98331C3.55633 9.83249 4.27923 10.4876 4.9765 10.9921L3.97565 11.9929C3.10706 11.3449 2.23212 10.5185 1.35553 9.44705V9.44706ZM16.6426 8.56437C15.7519 7.46012 14.8612 6.61106 13.9761 5.95225L12.9755 6.95292C13.6864 7.46555 14.4244 8.14066 15.1817 9.01865C14.8223 9.43412 14.226 10.0627 13.4429 10.665C12.6152 11.3034 11.594 11.8903 10.454 12.1885C11.5675 11.6048 12.3401 10.403 12.3401 9.00003C12.3401 8.57541 12.2629 8.17184 12.1342 7.79422L6.54767 13.3807C7.36426 13.658 8.16395 13.7968 8.92414 13.7961C11.1282 13.793 12.9707 12.7943 14.2971 11.7742C15.626 10.7496 16.4609 9.68315 16.6563 9.42576L16.9858 8.98972L16.6426 8.56437H16.6426ZM14.9959 1.99033L1.96654 15.0197L2.95648 16.0097L15.9858 2.98026L14.9959 1.99033Z" fill="#767676"/>
</svg>
